<?xml version="1.0" encoding="UTF-8" standalone="no"?>
<svg
   xmlns:dc="http://purl.org/dc/elements/1.1/"
   xmlns:cc="http://creativecommons.org/ns#"
   xmlns:rdf="http://www.w3.org/1999/02/22-rdf-syntax-ns#"
   xmlns:svg="http://www.w3.org/2000/svg"
   xmlns="http://www.w3.org/2000/svg"
   version="1.1"
   id="Layer_1"
   x="0px"
   y="0px"
   viewBox="0 0 39.514999 24.641001"
   xml:space="preserve"
   width="39.514999"
   height="40"><metadata
     id="metadata3625"><rdf:RDF><cc:Work
         rdf:about=""><dc:format>image/svg+xml</dc:format><dc:type
           rdf:resource="http://purl.org/dc/dcmitype/StillImage" /><dc:title></dc:title></cc:Work></rdf:RDF></metadata><defs
     id="defs3623" /><path
     id="polygon3611"
     transform="translate(0,-7.6794996)"
     d="M 15.207031 7.6796875 C 9.6280312 7.6796875 5.1054688 12.20025 5.1054688 17.78125 C 5.1054688 17.88125 5.1180937 17.976219 5.1210938 18.074219 C 2.1280938 18.941219 5.9211895e-16 22.445141 0 24.994141 L 0 25.660156 C 0 28.971156 3.5782344 32.320313 7.9902344 32.320312 L 31.523438 32.320312 C 35.935437 32.320312 39.515625 28.970156 39.515625 25.660156 L 39.515625 24.994141 C 39.515625 21.916141 36.416594 18.050937 32.433594 17.710938 C 32.344594 14.958938 30.091313 12.755859 27.320312 12.755859 C 26.244312 12.755859 25.247828 13.09025 24.423828 13.65625 C 22.843828 10.13625 19.316031 7.6796875 15.207031 7.6796875 z M 27.337891 18.582031 C 29.716891 18.582031 29.964844 20.064391 29.964844 21.025391 L 29.964844 21.234375 L 28.482422 21.234375 L 28.482422 21.039062 C 28.482422 20.193062 28.104641 19.699219 27.181641 19.699219 C 26.544641 19.699219 25.933594 20.051063 25.933594 21.039062 C 25.933594 21.832062 26.337172 22.234328 27.326172 22.611328 L 28.326172 22.976562 C 29.639172 23.443563 30.212891 24.160594 30.212891 25.433594 C 30.213891 27.412594 29.016531 28.230469 27.144531 28.230469 C 24.843531 28.230469 24.322266 26.697484 24.322266 25.396484 L 24.322266 25.175781 L 25.804688 25.175781 L 25.804688 25.410156 C 25.804688 26.541156 26.299172 27.113281 27.326172 27.113281 C 28.262172 27.113281 28.728516 26.447812 28.728516 25.757812 C 28.728516 24.782812 28.236297 24.355375 27.404297 24.109375 L 26.388672 23.755859 C 25.035672 23.235859 24.451172 22.534984 24.451172 21.208984 C 24.451172 19.517984 25.595891 18.582031 27.337891 18.582031 z M 9.9023438 18.765625 L 11.800781 18.765625 L 14.244141 28.048828 L 12.699219 28.048828 L 12.126953 25.775391 L 9.4101562 25.775391 L 8.8105469 28.048828 L 7.2636719 28.048828 L 9.9023438 18.765625 z M 14.078125 18.765625 L 15.574219 18.765625 L 16.796875 25.982422 L 16.822266 25.982422 L 18.044922 18.765625 L 19.605469 18.765625 L 20.853516 26.019531 L 20.878906 26.019531 L 22.087891 18.765625 L 23.556641 18.765625 L 21.710938 28.048828 L 19.994141 28.048828 L 18.798828 21.054688 L 18.773438 21.054688 L 17.589844 28.048828 L 15.873047 28.048828 L 14.078125 18.765625 z M 10.787109 20.013672 L 9.6816406 24.589844 L 11.880859 24.589844 L 10.8125 20.013672 L 10.787109 20.013672 z "
     style="fill:#000000" /></svg>